<?xml version="1.0" encoding="UTF-8" standalone="no"?>
<!-- Created with Inkscape (http://www.inkscape.org/) -->

<svg
   width="48"
   height="48"
   viewBox="0 0 12.7 12.7"
   version="1.1"
   id="svg1"
   xml:space="preserve"
   inkscape:export-filename="blume-logo.svg"
   inkscape:export-xdpi="96"
   inkscape:export-ydpi="96"
   inkscape:version="1.4.3 (0d15f75042, 2025-12-25)"
   sodipodi:docname="blume-logo.svg"
   xmlns:inkscape="http://www.inkscape.org/namespaces/inkscape"
   xmlns:sodipodi="http://sodipodi.sourceforge.net/DTD/sodipodi-0.dtd"
   xmlns="http://www.w3.org/2000/svg"
   xmlns:svg="http://www.w3.org/2000/svg"><sodipodi:namedview
     id="namedview1"
     pagecolor="#505050"
     bordercolor="#eeeeee"
     borderopacity="1"
     inkscape:showpageshadow="0"
     inkscape:pageopacity="0"
     inkscape:pagecheckerboard="0"
     inkscape:deskcolor="#505050"
     inkscape:document-units="mm"
     inkscape:zoom="4.3958333"
     inkscape:cx="59.71564"
     inkscape:cy="-18.085308"
     inkscape:current-layer="layer1" /><defs
     id="defs1" /><g
     inkscape:label="Layer 1"
     inkscape:groupmode="layer"
     id="layer1"><path
       id="path476"
       style="display:inline;fill:none;stroke:#0e0e0e;stroke-width:0.396875;stroke-dasharray:none;stroke-opacity:1"
       inkscape:label="hexagon"
       d="m 6.3500009,11.92149 4.8218601,-2.7857414 5e-6,-5.5715004 L 6.3500009,0.77851044 1.5281572,3.5642491 V 9.1357525 Z M 11.171862,6.3499798 8.7609307,4.957104 8.7609245,2.1713552 m 0,0 -2.4109222,1.3928719 -1.4e-6,2.7857664 m 0,0 2.4109287,1.3928612 2.4109324,-1.3928749 m -7.2328032,-4.178609 9e-7,2.785753 -2.4109235,1.3928798 m 0,0 2.4109223,1.3928719 2.4109424,-1.3928821 m 0,0 L 6.3499884,3.5642495 3.9390588,2.1713708 M 3.9390826,10.52863 6.3500123,9.1357525 8.760942,10.528622 m 0,0 V 7.7428777 L 6.3500009,6.3499934 m 0,0 -2.4109161,1.3928828 -2.2e-6,2.7857538" /></g></svg>
