<svg width="195" height="27" viewBox="0 0 195 27" fill="none" xmlns="http://www.w3.org/2000/svg">
<g clip-path="url(#clip0_626_308)">
<path d="M2.05263 0H0V27H2.05263V0Z" fill="#0E0E0E"/>
<path d="M6.1581 0H4.10547V27H6.1581V0Z" fill="#0E0E0E"/>
<path d="M12.3158 0H10.2632V23.8235H12.3158V0Z" fill="#0E0E0E"/>
<path d="M20.5262 0H16.4209V23.8235H20.5262V0Z" fill="#0E0E0E"/>
<path d="M30.7896 0H22.5791V23.8235H30.7896V0Z" fill="#0E0E0E"/>
<path d="M34.8949 0H32.8423V23.8235H34.8949V0Z" fill="#0E0E0E"/>
<path d="M45.1579 0H39V23.8235H45.1579V0Z" fill="#0E0E0E"/>
<path d="M49.2631 0H47.2104V23.8235H49.2631V0Z" fill="#0E0E0E"/>
<path d="M55.4212 0H51.3159V23.8235H55.4212V0Z" fill="#0E0E0E"/>
<path d="M63.6317 0H61.5791V23.8235H63.6317V0Z" fill="#0E0E0E"/>
<path d="M73.8944 0H71.8418V23.8235H73.8944V0Z" fill="#0E0E0E"/>
<path d="M77.9999 0H75.9473V23.8235H77.9999V0Z" fill="#0E0E0E"/>
<path d="M84.1576 0H82.105V23.8235H84.1576V0Z" fill="#0E0E0E"/>
<path d="M92.3685 0H90.3159V23.8235H92.3685V0Z" fill="#0E0E0E"/>
<path d="M96.4735 0H94.4209V27H96.4735V0Z" fill="#0E0E0E"/>
<path d="M100.579 0H98.5264V27H100.579V0Z" fill="#0E0E0E"/>
<path d="M104.684 0H102.631V23.8235H104.684V0Z" fill="#0E0E0E"/>
<path d="M110.842 0H108.79V23.8235H110.842V0Z" fill="#0E0E0E"/>
<path d="M123.158 0H117V23.8235H123.158V0Z" fill="#0E0E0E"/>
<path d="M127.263 0H125.21V23.8235H127.263V0Z" fill="#0E0E0E"/>
<path d="M137.526 0H131.368V23.8235H137.526V0Z" fill="#0E0E0E"/>
<path d="M143.684 0H141.631V23.8235H143.684V0Z" fill="#0E0E0E"/>
<path d="M149.842 0H145.737V23.8235H149.842V0Z" fill="#0E0E0E"/>
<path d="M158.053 0H153.947V23.8235H158.053V0Z" fill="#0E0E0E"/>
<path d="M164.21 0H160.105V23.8235H164.21V0Z" fill="#0E0E0E"/>
<path d="M170.368 0H166.263V23.8235H170.368V0Z" fill="#0E0E0E"/>
<path d="M176.526 0H174.474V23.8235H176.526V0Z" fill="#0E0E0E"/>
<path d="M182.684 0H180.631V23.8235H182.684V0Z" fill="#0E0E0E"/>
<path d="M190.894 0H188.842V27H190.894V0Z" fill="#0E0E0E"/>
<path d="M195 0H192.947V27H195V0Z" fill="#0E0E0E"/>
</g>
<defs>
<clipPath id="clip0_626_308">
<rect width="195" height="27" fill="white"/>
</clipPath>
</defs>
</svg>
