<?xml version="1.0" encoding="UTF-8" standalone="no"?>
<!-- Created with Inkscape (http://www.inkscape.org/) -->

<svg
   width="176"
   height="176"
   viewBox="0 0 46.566668 46.566666"
   version="1.1"
   id="svg1"
   xml:space="preserve"
   sodipodi:docname="user.svg"
   inkscape:version="1.4.3 (0d15f75042, 2025-12-25)"
   xmlns:inkscape="http://www.inkscape.org/namespaces/inkscape"
   xmlns:sodipodi="http://sodipodi.sourceforge.net/DTD/sodipodi-0.dtd"
   xmlns="http://www.w3.org/2000/svg"
   xmlns:svg="http://www.w3.org/2000/svg"
   xmlns:rdf="http://www.w3.org/1999/02/22-rdf-syntax-ns#"
   xmlns:cc="http://creativecommons.org/ns#"
   xmlns:dc="http://purl.org/dc/elements/1.1/"><sodipodi:namedview
     id="namedview1"
     pagecolor="#505050"
     bordercolor="#eeeeee"
     borderopacity="1"
     inkscape:showpageshadow="0"
     inkscape:pageopacity="0"
     inkscape:pagecheckerboard="0"
     inkscape:deskcolor="#505050"
     inkscape:zoom="2.3977273"
     inkscape:cx="84.037915"
     inkscape:cy="183.29858"
     inkscape:current-layer="svg1"
     showgrid="false" /><defs
     id="defs1" /><metadata
     id="metadata1"><rdf:RDF><cc:Work
         rdf:about=""><dc:format>image/svg+xml</dc:format><dc:type
           rdf:resource="http://purl.org/dc/dcmitype/StillImage" /></cc:Work></rdf:RDF></metadata><g
     id="layer1"
     transform="matrix(2.3153636,0,0,0.63257588,-30.876611,18.661688)"
     style="stroke-width:0.826298"><g
       id="g2"
       style="display:none;stroke-width:0.375964"
       transform="matrix(0.25115032,0,0,0.91926414,35.956698,-30.50273)"><path
         fill="#000000"
         stroke="none"
         d="m -9.9905569,81.169251 q -0.7810551,-3.957341 -2.9159371,-6.092225 -2.655586,-3.07215 -20.203281,-9.84129 -5.623593,-2.603516 -5.623593,-5.936016 l -0.156211,-2.551445 q 4.478047,-4.582187 5.988086,-10.518202 2.343163,-0.989336 2.863866,-4.009413 2.968008,-5.988086 -1.041406,-8.175039 3.124219,-10.674413 -0.728984,-15.933515 L -40.451689,6.3962872 q 0,2.8638675 -1.249686,2.2910935 0.676914,-1.7703905 0,-2.551445 -0.833125,1.9786718 -2.759727,2.2910937 l 1.145547,-1.8745316 q -1.093476,1.6141802 -3.332499,1.6662498 -0.624844,-0.7810544 0.364491,-2.3952338 -1.197617,0.728984 -2.030742,1.8745308 -1.197617,-0.208281 -0.885195,-2.6035148 -0.989336,1.1455468 -2.082812,2.4993747 -2.082813,-0.1562113 -0.156211,-2.7597261 -2.343164,0.5727725 -2.655586,2.3431633 -0.833125,-0.520703 -0.989336,-2.1348823 -2.603515,3.2804291 -6.560858,6.7170696 l -5.415313,4.946679 q -3.38457,3.644921 -3.228359,9.320585 0.156211,5.623593 1.510039,8.018828 -3.957344,2.551445 -1.197617,8.279179 0.624844,3.332499 3.020078,3.592852 1.71832,6.352577 6.300507,10.830623 0.468633,5.102891 -3.801132,7.393984 -2.863867,1.562109 -6.665,2.915937 l -6.977421,2.811797 q -7.185702,3.228359 -9.424726,6.196368 -2.86387,4.269768 -2.239023,9.372658 h 79.719642 q 0.4686341,-2.186957 0.052071,-4.269768 z"
         id="path8"
         style="fill:#f61f03;fill-opacity:1;stroke-width:0.375964" /></g><path
       id="rect2"
       style="display:inline;fill:#cdcdcd;fill-opacity:1;stroke-width:0.437247;stroke-miterlimit:3"
       d="M 23.43284 -19.090269 C 20.68009 -19.090267 18.970171 -11.840747 18.970171 0.7943981 C 18.970171 1.0487387 18.970955 1.3025345 18.972403 1.5565851 C 18.686619 2.3162742 18.463896 4.4860832 18.830678 7.5437969 L 19.015478 9.8385271 C 19.067069 10.192231 19.226272 11.026513 19.407175 11.506679 C 19.791682 16.046724 20.415501 19.992134 21.221481 22.585758 C 21.152363 24.443088 20.807045 28.731037 19.112566 31.174045 C 19.032621 31.289305 18.96544 31.40821 18.910579 31.529405 C 16.810672 33.783208 14.915611 37.497387 13.519442 42.607667 C 12.916368 44.815026 10.908128 75.212606 10.908128 75.212606 L 23.43351 75.212606 L 35.957107 75.212606 C 35.957107 75.212606 33.948866 44.815026 33.345792 42.607667 C 31.930661 37.427982 30.003516 33.682104 27.870066 31.43791 C 27.824319 31.348023 27.771804 31.259692 27.711825 31.173228 C 26.052202 28.780742 25.686651 24.617869 25.607374 22.702577 C 26.431204 20.111416 27.068156 16.115718 27.458505 11.506679 C 27.639408 11.026512 27.798612 10.19223 27.850203 9.8385271 L 28.035003 7.5437969 C 28.401784 4.4860867 28.179061 2.3162766 27.893278 1.5565851 C 27.894726 1.3025336 27.89551 1.0487396 27.89551 0.7943981 C 27.89551 -11.840747 26.18559 -19.090271 23.43284 -19.090269 z " /></g><path
     id="rect4-7"
     style="display:none;fill:#ffffff;fill-opacity:1;stroke:none;stroke-width:2.64583;stroke-miterlimit:3;stroke-dasharray:none"
     d="M 0.87933293,58.208335 H -7.4505806e-8 v -0.879333 z"
     sodipodi:nodetypes="cccc" /><rect
     style="display:none;fill:none;stroke:#ffffff;stroke-width:0.264583;stroke-miterlimit:3;stroke-dasharray:none;stroke-opacity:1"
     id="rect1"
     width="46.302078"
     height="57.943752"
     x="0.13229142"
     y="0.1322915" /><path
     id="rect4"
     style="display:none;fill:#ffffff;fill-opacity:1;stroke:none;stroke-width:2.64584;stroke-miterlimit:3"
     d="m 45.687333,0 h 0.879333 v 0.87933343 z"
     sodipodi:nodetypes="cccc" /></svg>
